<svg xmlns="http://www.w3.org/2000/svg" width="400" height="320" viewBox="0 0 400 320" role="img" aria-labelledby="title desc">
  <title id="title">Ambar Teaching Services placeholder logo</title>
  <desc id="desc">A playful placeholder logo with soft shapes and the word Ambar.</desc>
  <defs>
    <linearGradient id="bg" x1="0%" y1="0%" x2="100%" y2="100%">
      <stop offset="0%" stop-color="#FFF3B7"/>
      <stop offset="100%" stop-color="#BFE7F6"/>
    </linearGradient>
  </defs>
  <rect width="400" height="320" rx="52" fill="url(#bg)"/>
  <circle cx="83" cy="83" r="36" fill="#FFB6A3" opacity="0.92"/>
  <circle cx="319" cy="88" r="26" fill="#BDEBD4" opacity="0.95"/>
  <circle cx="304" cy="248" r="42" fill="#FFE08A" opacity="0.88"/>
  <path d="M129 96c14-18 32-27 54-27 26 0 44 13 56 40 8-12 21-18 40-18 31 0 53 22 53 53 0 22-9 38-27 47-14 7-34 10-60 10H128c-34 0-60-25-60-58 0-29 19-50 47-56 4-1 9-1 14-1Z" fill="#FFFFFF" opacity="0.72"/>
  <path d="M112 136h72c12 0 20 8 20 20v66c0 12-8 20-20 20h-72c-12 0-20-8-20-20v-66c0-12 8-20 20-20Z" fill="#FFFFFF"/>
  <path d="M202 136h86c12 0 20 8 20 20v66c0 12-8 20-20 20h-86c-12 0-20-8-20-20v-66c0-12 8-20 20-20Z" fill="#FFFFFF" opacity="0.93"/>
  <path d="M112 154h72" stroke="#77BEE6" stroke-width="10" stroke-linecap="round"/>
  <path d="M112 178h72" stroke="#BDEBD4" stroke-width="10" stroke-linecap="round"/>
  <path d="M112 202h48" stroke="#FFE08A" stroke-width="10" stroke-linecap="round"/>
  <text x="203" y="179" text-anchor="middle" font-family="Fredoka, Nunito, sans-serif" font-size="34" font-weight="600" fill="#23415B">Ambar</text>
  <text x="245" y="212" text-anchor="middle" font-family="Nunito, sans-serif" font-size="18" font-weight="700" fill="#52697F" letter-spacing="1.2">TEACHING SERVICES</text>
</svg>